<svg width="40" height="40" viewBox="0 0 40 40" fill="none" xmlns="http://www.w3.org/2000/svg">
<path d="M20 2.42188C9.01484 2.42188 0 11.3586 0 22.3438V31.7188C0 33.6573 1.57703 35.2344 3.51562 35.2344H4.6875V23.5156H3.51562C3.10281 23.5156 2.71211 23.6002 2.34375 23.7315V22.3438C2.34375 12.6506 10.3069 4.76562 20 4.76562C29.6931 4.76562 37.6562 12.6506 37.6562 22.3438V23.7315C37.2879 23.6002 36.8972 23.5156 36.4844 23.5156H35.3125V35.2344H36.4844C38.423 35.2344 40 33.6573 40 31.7188V22.3438C40 11.3586 30.9852 2.42188 20 2.42188Z" fill="#FBFBFF"/>
<path d="M10.5469 21.1719H9.375C8.08055 21.1719 7.03125 22.2212 7.03125 23.5156V35.2344C7.03125 36.5288 8.08055 37.5781 9.375 37.5781H10.5469C11.1941 37.5781 11.7188 37.0534 11.7188 36.4062V22.3438C11.7188 21.6966 11.1941 21.1719 10.5469 21.1719Z" fill="#FBFBFF"/>
<path d="M30.625 21.1719H29.4531C28.8059 21.1719 28.2812 21.6966 28.2812 22.3438V36.4062C28.2812 37.0534 28.8059 37.5781 29.4531 37.5781H30.625C31.9195 37.5781 32.9688 36.5288 32.9688 35.2344V23.5156C32.9688 22.2212 31.9195 21.1719 30.625 21.1719Z" fill="#FBFBFF"/>
</svg>
