<svg width="40" height="40" viewBox="0 0 40 40" fill="none" xmlns="http://www.w3.org/2000/svg">
<path d="M29.7933 0H10.2069C8.26836 0 6.69125 1.57711 6.69125 3.51562V36.4844C6.69125 38.4229 8.26836 40 10.2069 40H29.7932C31.7317 40 33.3088 38.4229 33.3088 36.4844V3.51562C33.3089 1.57711 31.7318 0 29.7933 0ZM20.0001 5.6675C22.1369 5.6675 23.8691 7.39969 23.8691 9.53648C23.8691 11.6733 22.1369 13.4055 20.0001 13.4055C17.8633 13.4055 16.1311 11.6733 16.1311 9.53648C16.1311 7.39969 17.8633 5.6675 20.0001 5.6675ZM20.0001 34.8036C14.9057 34.8036 10.7612 30.6591 10.7612 25.5648C10.7612 20.4705 14.9057 16.3259 20.0001 16.3259C25.0945 16.3259 29.239 20.4704 29.239 25.5648C29.239 30.6591 25.0945 34.8036 20.0001 34.8036Z" fill="#FBFBFF"/>
<path d="M20.0001 21.667C17.8509 21.667 16.1023 23.4156 16.1023 25.5648C16.1023 27.7139 17.8509 29.4624 20.0001 29.4624C22.1493 29.4624 23.8978 27.7139 23.8978 25.5648C23.8978 23.4156 22.1493 21.667 20.0001 21.667Z" fill="#FBFBFF"/>
</svg>
