<svg width="40" height="40" viewBox="0 0 40 40" fill="none" xmlns="http://www.w3.org/2000/svg">
<path d="M9.45312 7.03125C7.51461 7.03125 5.9375 8.60836 5.9375 10.5469C5.9375 12.4854 7.51461 14.0625 9.45312 14.0625C11.3916 14.0625 12.9688 12.4854 12.9688 10.5469C12.9688 8.60836 11.3916 7.03125 9.45312 7.03125ZM9.45312 11.7188C8.80594 11.7188 8.28125 11.1941 8.28125 10.5469C8.28125 9.89969 8.80594 9.375 9.45312 9.375C10.1003 9.375 10.625 9.89969 10.625 10.5469C10.625 11.1941 10.1003 11.7188 9.45312 11.7188Z" fill="#FBFBFF"/>
<path d="M9.45312 21.0938C7.51461 21.0938 5.9375 22.6709 5.9375 24.6094C5.9375 26.5479 7.51461 28.125 9.45312 28.125C11.3916 28.125 12.9688 26.5479 12.9688 24.6094C12.9688 22.6709 11.3916 21.0938 9.45312 21.0938ZM9.45312 25.7812C8.80594 25.7812 8.28125 25.2566 8.28125 24.6094C8.28125 23.9622 8.80594 23.4375 9.45312 23.4375C10.1003 23.4375 10.625 23.9622 10.625 24.6094C10.625 25.2566 10.1003 25.7812 9.45312 25.7812Z" fill="#FBFBFF"/>
<path d="M1.25 0C0.602812 0 0.078125 0.524687 0.078125 1.17188V38.8281C0.078125 39.4753 0.602812 40 1.25 40H17.6562C18.3034 40 18.8281 39.4753 18.8281 38.8281V1.17188C18.8281 0.524687 18.3034 0 17.6562 0H1.25ZM11.7969 35.1562H7.1425C6.51148 35.1562 5.96852 34.6713 5.93883 34.041C5.90711 33.368 6.44336 32.8125 7.10938 32.8125H11.7638C12.3948 32.8125 12.9377 33.2974 12.9674 33.9277C12.9991 34.6007 12.4629 35.1562 11.7969 35.1562ZM9.72797 30.4624C6.28047 30.6209 3.44148 27.7817 3.60008 24.3342C3.73836 21.3285 6.1725 18.8945 9.1782 18.7563C12.6257 18.5979 15.4647 21.437 15.3061 24.8845C15.1679 27.8902 12.7337 30.3243 9.72797 30.4624ZM9.72797 16.3999C6.28047 16.5584 3.44148 13.7192 3.60008 10.2717C3.73836 7.26602 6.1725 4.83195 9.1782 4.69383C12.6257 4.53539 15.4647 7.37453 15.3061 10.822C15.1679 13.8277 12.7337 16.2618 9.72797 16.3999Z" fill="#FBFBFF"/>
<path d="M30.5469 7.03125C28.6084 7.03125 27.0312 8.60836 27.0312 10.5469C27.0312 12.4854 28.6084 14.0625 30.5469 14.0625C32.4854 14.0625 34.0625 12.4854 34.0625 10.5469C34.0625 8.60836 32.4854 7.03125 30.5469 7.03125ZM30.5469 11.7188C29.8997 11.7188 29.375 11.1941 29.375 10.5469C29.375 9.89969 29.8997 9.375 30.5469 9.375C31.1941 9.375 31.7188 9.89969 31.7188 10.5469C31.7188 11.1941 31.1941 11.7188 30.5469 11.7188Z" fill="#FBFBFF"/>
<path d="M38.75 0H22.3438C21.6966 0 21.1719 0.524687 21.1719 1.17188V38.8281C21.1719 39.4753 21.6966 40 22.3438 40H38.75C39.3972 40 39.9219 39.4753 39.9219 38.8281V1.17188C39.9219 0.524687 39.3972 0 38.75 0ZM32.8906 35.1562H28.2031C27.5559 35.1562 27.0312 34.6316 27.0312 33.9844C27.0312 33.3372 27.5559 32.8125 28.2031 32.8125H32.8906C33.5378 32.8125 34.0625 33.3372 34.0625 33.9844C34.0625 34.6316 33.5378 35.1562 32.8906 35.1562ZM30.5469 30.4688C27.316 30.4688 24.6875 27.8402 24.6875 24.6094C24.6875 21.3785 27.316 18.75 30.5469 18.75C33.7777 18.75 36.4062 21.3785 36.4062 24.6094C36.4062 27.8402 33.7777 30.4688 30.5469 30.4688ZM30.5469 16.4062C27.316 16.4062 24.6875 13.7777 24.6875 10.5469C24.6875 7.31602 27.316 4.6875 30.5469 4.6875C33.7777 4.6875 36.4062 7.31602 36.4062 10.5469C36.4062 13.7777 33.7777 16.4062 30.5469 16.4062Z" fill="#FBFBFF"/>
<path d="M30.5469 21.0938C28.6084 21.0938 27.0312 22.6709 27.0312 24.6094C27.0312 26.5479 28.6084 28.125 30.5469 28.125C32.4854 28.125 34.0625 26.5479 34.0625 24.6094C34.0625 22.6709 32.4854 21.0938 30.5469 21.0938ZM30.5469 25.7812C29.8997 25.7812 29.375 25.2566 29.375 24.6094C29.375 23.9622 29.8997 23.4375 30.5469 23.4375C31.1941 23.4375 31.7188 23.9622 31.7188 24.6094C31.7188 25.2566 31.1941 25.7812 30.5469 25.7812Z" fill="#FBFBFF"/>
</svg>
