<svg width="28" height="28" viewBox="0 0 28 28" fill="none" xmlns="http://www.w3.org/2000/svg">
<path d="M19.6438 5.25C20.2809 5.24946 20.9116 5.37611 21.4991 5.62253C22.0866 5.86894 22.619 6.23016 23.0651 6.685C23.9842 7.61808 24.4994 8.87526 24.4994 10.185C24.4994 11.4947 23.9842 12.7519 23.0651 13.685L14 22.8638L4.93505 13.685C4.01593 12.7519 3.50074 11.4947 3.50074 10.185C3.50074 8.87526 4.01593 7.61808 4.93505 6.685C5.38138 6.23048 5.9138 5.86946 6.50122 5.62301C7.08864 5.37656 7.71928 5.24963 8.3563 5.24963C8.99332 5.24963 9.62396 5.37656 10.2114 5.62301C10.7988 5.86946 11.3312 6.23048 11.7775 6.685L14 8.96L16.2138 6.7025C16.6585 6.24224 17.1915 5.87638 17.7808 5.62681C18.3702 5.37724 19.0038 5.24908 19.6438 5.25ZM19.6438 3.5C18.7737 3.49926 17.9122 3.67225 17.1099 4.00882C16.3075 4.34538 15.5805 4.83875 14.9713 5.46L14 6.44L13.0288 5.46C12.4189 4.83987 11.6916 4.34736 10.8894 4.01117C10.0872 3.67498 9.2261 3.50184 8.3563 3.50184C7.48649 3.50184 6.62539 3.67498 5.82318 4.01117C5.02098 4.34736 4.29372 4.83987 3.6838 5.46C2.44294 6.72317 1.74768 8.42307 1.74768 10.1938C1.74768 11.9644 2.44294 13.6643 3.6838 14.9275L14 25.375L24.3163 14.9275C25.5572 13.6643 26.2524 11.9644 26.2524 10.1938C26.2524 8.42307 25.5572 6.72317 24.3163 5.46C23.7065 4.83954 22.9793 4.34669 22.1771 4.01018C21.3749 3.67367 20.5137 3.50024 19.6438 3.5Z" fill="current"/>
</svg>
