<svg width="28" height="28" viewBox="0 0 28 28" fill="none" xmlns="http://www.w3.org/2000/svg">
<path d="M26.7601 8.68178C26.6699 8.58199 26.5579 8.50188 26.4319 8.44695C26.3058 8.39203 26.1687 8.36359 26.0299 8.3636H20.2654V4.72726C20.2654 4.00394 19.9617 3.31026 19.4212 2.7988C18.8806 2.28734 18.1475 2 17.3831 2H11.6185C10.8541 2 10.1209 2.28734 9.58041 2.7988C9.03988 3.31026 8.73621 4.00394 8.73621 4.72726V8.3636H2.97164C2.83238 8.36211 2.69443 8.38928 2.56737 8.44324C2.4403 8.4972 2.32716 8.57666 2.23577 8.6761C2.14438 8.77555 2.07693 8.89261 2.0381 9.01916C1.99927 9.14572 1.98998 9.27876 2.01088 9.40905L3.81711 20.4544C3.8866 20.888 4.11933 21.2832 4.47244 21.5672C4.82555 21.8512 5.27523 22.0048 5.73864 21.9999H23.2821C23.7455 22.0048 24.1952 21.8512 24.5483 21.5672C24.9014 21.2832 25.1342 20.888 25.2037 20.4544L26.9907 9.40905C27.0099 9.27926 26.9993 9.14707 26.9595 9.02154C26.9197 8.89601 26.8517 8.78011 26.7601 8.68178V8.68178ZM10.6577 4.72726C10.6577 4.48615 10.759 4.25492 10.9391 4.08444C11.1193 3.91395 11.3637 3.81817 11.6185 3.81817H17.3831C17.6379 3.81817 17.8823 3.91395 18.0624 4.08444C18.2426 4.25492 18.3438 4.48615 18.3438 4.72726V8.3636H10.6577V4.72726ZM23.2821 20.1817H5.71942L4.09573 10.1818H24.9058L23.2821 20.1817Z" fill="current"/>
</svg>
