<svg width="28" height="28" viewBox="0 0 28 28" fill="none" xmlns="http://www.w3.org/2000/svg">
<path d="M25.375 24.1377L18.767 17.5297C20.355 15.6234 21.1468 13.1782 20.9779 10.7029C20.8089 8.22758 19.6921 5.9127 17.8599 4.23981C16.0276 2.56692 13.6209 1.66482 11.1405 1.72118C8.66007 1.77754 6.29685 2.78802 4.54246 4.5424C2.78808 6.29679 1.7776 8.66001 1.72124 11.1404C1.66488 13.6209 2.56698 16.0276 4.23987 17.8598C5.91276 19.6921 8.22764 20.8088 10.703 20.9778C13.1783 21.1468 15.6234 20.3549 17.5298 18.767L24.1378 25.375L25.375 24.1377ZM3.50004 11.375C3.50004 9.81745 3.9619 8.2949 4.82722 6.99986C5.69253 5.70483 6.92244 4.69547 8.36141 4.09943C9.80038 3.50339 11.3838 3.34744 12.9114 3.6513C14.439 3.95515 15.8422 4.70517 16.9435 5.80651C18.0448 6.90785 18.7949 8.31104 19.0987 9.83864C19.4026 11.3662 19.2466 12.9496 18.6506 14.3886C18.0546 15.8276 17.0452 17.0575 15.7502 17.9228C14.4551 18.7881 12.9326 19.25 11.375 19.25C9.28717 19.2477 7.28548 18.4172 5.80913 16.9409C4.33279 15.4645 3.50236 13.4628 3.50004 11.375Z" fill="current"/>
</svg>
