<svg width="65" height="65" viewBox="0 0 65 65" fill="none" xmlns="http://www.w3.org/2000/svg">
<path d="M16.25 20.3125C16.25 19.1913 15.34 18.2812 14.2188 18.2812H2.03125C0.91 18.2812 0 19.1913 0 20.3125C0 21.4337 0.91 22.3438 2.03125 22.3438H14.2188C15.34 22.3438 16.25 21.4337 16.25 20.3125Z" fill="#FFC107"/>
<path d="M14.2188 26.4062H6.09375C4.9725 26.4062 4.0625 27.3163 4.0625 28.4375C4.0625 29.5587 4.9725 30.4688 6.09375 30.4688H14.2188C15.34 30.4688 16.25 29.5587 16.25 28.4375C16.25 27.3163 15.34 26.4062 14.2188 26.4062Z" fill="#FFC107"/>
<path d="M14.2188 34.5312H10.1562C9.035 34.5312 8.125 35.4413 8.125 36.5625C8.125 37.6837 9.035 38.5938 10.1562 38.5938H14.2188C15.34 38.5938 16.25 37.6837 16.25 36.5625C16.25 35.4413 15.34 34.5312 14.2188 34.5312Z" fill="#FFC107"/>
<path d="M64.7116 33.4872L58.6178 23.3309C58.2522 22.7175 57.59 22.3438 56.875 22.3438H42.6562C41.535 22.3438 40.625 23.2538 40.625 24.375V44.6875C40.625 45.8088 41.535 46.7188 42.6562 46.7188H62.9688C64.09 46.7188 65 45.8088 65 44.6875V34.5312C65 34.1616 64.9025 33.8 64.7116 33.4872Z" fill="#F44336"/>
<path d="M48.75 26.4062H55.7253L60.6003 34.5312H48.75V26.4062Z" fill="#FAFAFA"/>
<path d="M42.6562 14.2188H14.2188C13.0975 14.2188 12.1875 15.1288 12.1875 16.25V44.6875C12.1875 45.8088 13.0975 46.7188 14.2188 46.7188H44.6875V16.25C44.6875 15.1288 43.7775 14.2188 42.6562 14.2188Z" fill="#FFC107"/>
<path d="M54.8438 48.75C57.0874 48.75 58.9062 46.9312 58.9062 44.6875C58.9062 42.4438 57.0874 40.625 54.8438 40.625C52.6001 40.625 50.7812 42.4438 50.7812 44.6875C50.7812 46.9312 52.6001 48.75 54.8438 48.75Z" fill="#FAFAFA"/>
<path d="M54.8438 50.7812C51.4841 50.7812 48.75 48.0472 48.75 44.6875C48.75 41.3278 51.4841 38.5938 54.8438 38.5938C58.2034 38.5938 60.9375 41.3278 60.9375 44.6875C60.9375 48.0472 58.2034 50.7812 54.8438 50.7812ZM54.8438 42.6562C53.7266 42.6562 52.8125 43.5703 52.8125 44.6875C52.8125 45.8047 53.7266 46.7188 54.8438 46.7188C55.9609 46.7188 56.875 45.8047 56.875 44.6875C56.875 43.5703 55.9609 42.6562 54.8438 42.6562Z" fill="#455A64"/>
<path d="M44.6875 46.7188H14.2188C13.0975 46.7188 12.1875 45.8088 12.1875 44.6875V38.5938H44.6875V46.7188Z" fill="#F44336"/>
<path d="M26.4062 48.75C28.6499 48.75 30.4688 46.9312 30.4688 44.6875C30.4688 42.4438 28.6499 40.625 26.4062 40.625C24.1626 40.625 22.3438 42.4438 22.3438 44.6875C22.3438 46.9312 24.1626 48.75 26.4062 48.75Z" fill="#FAFAFA"/>
<path d="M26.4062 50.7812C23.0466 50.7812 20.3125 48.0472 20.3125 44.6875C20.3125 41.3278 23.0466 38.5938 26.4062 38.5938C29.7659 38.5938 32.5 41.3278 32.5 44.6875C32.5 48.0472 29.7659 50.7812 26.4062 50.7812ZM26.4062 42.6562C25.285 42.6562 24.375 43.5703 24.375 44.6875C24.375 45.8047 25.285 46.7188 26.4062 46.7188C27.5275 46.7188 28.4375 45.8047 28.4375 44.6875C28.4375 43.5703 27.5275 42.6562 26.4062 42.6562Z" fill="#455A64"/>
</svg>
