<svg width="40" height="40" viewBox="0 0 40 40" fill="none" xmlns="http://www.w3.org/2000/svg">
<path d="M30.9618 10.9617V16.6125H25.6985V11.1672C25.6985 9.59375 25.061 8.16875 24.0297 7.1375C22.9985 6.10625 21.5735 5.46875 20 5.46875C16.8524 5.46875 14.3016 8.02031 14.3016 11.1672V16.6125H9.03833V10.9617C9.03833 4.91719 13.9555 0 20 0C26.0446 0 30.9618 4.91719 30.9618 10.9617Z" fill="#C5C9F7"/>
<path d="M30.9617 10.9617V16.6125H25.6984V11.1672C25.6984 9.59375 25.0609 8.16875 24.0297 7.1375C22.9984 6.10625 21.5734 5.46875 20 5.46875V0C26.0445 0 30.9617 4.91719 30.9617 10.9617Z" fill="#97A1F0"/>
<path d="M34.8147 15.4406H5.18506V40H34.8147V15.4406Z" fill="#00A5FF"/>
<path d="M34.8148 15.4406H20V40H34.8148V15.4406Z" fill="#0087FF"/>
<path d="M23.1696 26.1234C23.1696 26.9547 22.8493 27.7109 22.3259 28.2766V32.643H17.6743V28.2766C17.1509 27.7109 16.8306 26.9547 16.8306 26.1234C16.8306 24.3727 18.2493 22.9539 20.0001 22.9539C21.7509 22.9539 23.1696 24.3727 23.1696 26.1234Z" fill="#00459D"/>
<path d="M23.1695 26.1234C23.1695 26.9547 22.8492 27.7109 22.3258 28.2766V32.643H20V22.9539C21.7508 22.9539 23.1695 24.3727 23.1695 26.1234Z" fill="#002D6B"/>
</svg>
