<svg width="75" height="30" viewBox="0 0 107 38" fill="none" xmlns="http://www.w3.org/2000/svg">
<path d="M47.625 9.525H55.65C57.2 9.525 58.4 9.925 59.25 10.725C60.1 11.525 60.525 12.6917 60.525 14.225C60.525 15.0917 60.3167 15.8583 59.9 16.525C59.5 17.175 58.9667 17.6583 58.3 17.975C60.1667 18.525 61.1 19.8833 61.1 22.05C61.1 23.0667 60.875 23.95 60.425 24.7C59.9917 25.4333 59.3917 26 58.625 26.4C57.8583 26.8 57.0083 27 56.075 27H47.625V9.525ZM55.325 17.025C56.1417 17.025 56.7833 16.8 57.25 16.35C57.7167 15.9 57.95 15.2333 57.95 14.35C57.95 13.3333 57.7167 12.625 57.25 12.225C56.8 11.8083 56.1 11.6 55.15 11.6H50.175V17.025H55.325ZM55.5 24.925C56.4833 24.925 57.2333 24.7083 57.75 24.275C58.2667 23.8417 58.525 23.1 58.525 22.05C58.525 21 58.25 20.25 57.7 19.8C57.1667 19.35 56.3583 19.125 55.275 19.125H50.175V24.925H55.5ZM63.8604 9.525H75.3854V11.675H66.4104V17.2H73.1104V19.325H66.4104V24.875H75.3854V27H63.8604V9.525ZM84.4955 9.525H86.9455L93.9205 27H91.3205L89.5705 22.65H81.8455L80.1455 27H77.5205L84.4955 9.525ZM88.8705 20.525L85.7205 12.35L82.5705 20.525H88.8705ZM97.9729 11.675H92.5479V9.525H105.973V11.675H100.548V27H97.9729V11.675Z" fill="current"/>
<g clip-path="url(#clip0)">
<path d="M2.1003 17.1288C2.1003 12.7378 4.02661 8.73767 7.07525 5.96992C7.04504 5.94389 7.01509 5.91746 6.98647 5.88884L5.54107 4.44357C5.35048 4.61742 5.16282 4.79553 4.97914 4.97921C1.76833 8.19001 0 12.4591 0 16.9999V22.6295L0.297102 22.9859H2.1003V17.1288Z" fill="#DBEDFF"/>
<path d="M1.09265 16.9999C1.09265 12.4591 2.86091 8.19001 6.07179 4.97914C6.07265 4.97834 6.07345 4.97755 6.07424 4.97675L5.54107 4.44357C5.35048 4.61742 5.16282 4.79553 4.97914 4.97921C1.76833 8.19001 0 12.4591 0 16.9999V22.6295L0.297101 22.9859H1.38975L1.09265 22.6295V16.9999Z" fill="#B5DCFF"/>
<path d="M29.0209 4.97921C28.8372 4.79553 28.6495 4.61742 28.4589 4.44357L27.0136 5.8889C26.998 5.90444 26.9813 5.91826 26.9653 5.93306C29.9931 8.66216 31.8998 12.6124 31.8998 16.9999V22.986H33.5621L34.0001 22.6295V17C34 12.4591 32.2317 8.19001 29.0209 4.97921Z" fill="#DBEDFF"/>
<path d="M29.0209 4.97921C28.8372 4.79553 28.6495 4.61742 28.4589 4.44357L27.0136 5.8889C26.998 5.90444 26.9813 5.91826 26.9653 5.93306C29.9931 8.66216 31.8998 12.6124 31.8998 16.9999V22.986H33.5621L34.0001 22.6295V17C34 12.4591 32.2317 8.19001 29.0209 4.97921Z" fill="#DBEDFF"/>
<path d="M33.0294 22.986V16.9999C33.0294 12.8012 31.2833 9.0029 28.4795 6.292C28.2725 6.09191 28.2723 5.76008 28.4758 5.55655C28.6069 5.42546 28.7876 5.24464 29.0367 4.99541C29.0314 4.99004 29.0262 4.98452 29.0209 4.97914C28.8372 4.79547 28.6495 4.61736 28.4589 4.44351L27.0136 5.88891C26.998 5.90445 26.9813 5.91826 26.9653 5.93307C29.993 8.66217 31.8998 12.6124 31.8998 16.9999V22.986H33.0294Z" fill="#B5DCFF"/>
<path d="M31.8997 22.6294L31.6123 22.8491V26.76L31.8997 27.0762C33.0597 27.0762 34 26.1359 34 24.9759V22.6295H31.8997V22.6294Z" fill="#A5AFE7"/>
<path d="M33.0294 22.6294H31.8997L31.6123 22.8491V26.76L31.8997 27.0762C32.3157 27.0762 32.7031 26.9547 33.0294 26.7461V22.6294Z" fill="#8896E0"/>
<path d="M2.1003 22.6294H0V24.9758C0 26.1358 0.940313 27.0761 2.1003 27.0761L2.549 26.8055V22.9859L2.1003 22.6294Z" fill="#8896E0"/>
<path d="M1.09265 24.9759V22.6295H0V24.9759C0 26.1359 0.940313 27.0762 2.1003 27.0762L2.37455 26.9108C1.62118 26.5917 1.09265 25.8456 1.09265 24.9759Z" fill="#6B7ED9"/>
<path d="M17 0C12.7189 0 8.67963 1.57243 5.54068 4.44311L6.98641 5.88884C7.54422 6.44665 8.42377 6.51239 9.06187 6.04855C11.2931 4.42651 14.0366 3.46846 17 3.46846C19.9634 3.46846 22.7068 4.42651 24.9381 6.04855C25.5762 6.51239 26.4558 6.44665 27.0136 5.88884L28.4593 4.44311C25.3204 1.57243 21.2811 0 17 0Z" fill="#FF636E"/>
<path d="M10.417 3.49018C12.8758 1.60331 15.7808 0.437949 18.8691 0.101867C18.2526 0.0348633 17.629 0 17 0C12.7188 0 8.67963 1.57243 5.54068 4.44317L6.98641 5.88891C7.54422 6.44672 8.42377 6.51246 9.06186 6.04861C9.42019 5.7881 9.79193 5.54499 10.1755 5.31994C9.74518 4.75694 9.83782 3.9347 10.417 3.49018Z" fill="#FF4654"/>
<path d="M30.4354 19.941H29.3697L28.9784 20.5916V32.1873L29.3697 32.5993H30.4354C31.2408 32.5993 31.8997 31.9404 31.8997 31.135V21.4053C31.8997 20.5999 31.2408 19.941 30.4354 19.941Z" fill="#6B7ED9"/>
<path d="M4.63032 19.941H3.56457C2.75926 19.941 2.10031 20.5999 2.10031 21.4053V31.135C2.10031 31.9404 2.75919 32.5993 3.56457 32.5993H4.63032L5.19431 32.2386V20.489L4.63032 19.941Z" fill="#6B7ED9"/>
<path d="M30.8333 19.9977C30.7065 19.9617 30.5734 19.941 30.4355 19.941H29.3697L28.9785 20.5916V32.1873L29.3697 32.5993H30.4355C30.5734 32.5993 30.7066 32.5787 30.8333 32.5426V19.9977Z" fill="#4D66D2"/>
<path d="M3.64731 31.135V21.4053C3.64731 20.7449 4.09051 20.1838 4.69394 20.0028L4.63032 19.941H3.56457C2.75926 19.941 2.10031 20.5999 2.10031 21.4053V31.135C2.10031 31.9404 2.75919 32.5993 3.56457 32.5993H4.63032L4.71745 32.5435C4.1022 32.3702 3.64731 31.8038 3.64731 31.135Z" fill="#4D66D2"/>
<path d="M24.3061 18.5403H28.368C28.919 18.5403 29.3697 18.9911 29.3697 19.5421V32.9983C29.3697 33.5493 28.919 34 28.368 34H24.3061C23.7551 34 23.3043 33.5493 23.3043 32.9983V19.5421C23.3043 18.9911 23.7551 18.5403 24.3061 18.5403Z" fill="#FF636E"/>
<path d="M9.69392 18.5403H5.63199C5.08101 18.5403 4.63025 18.9911 4.63025 19.5421V32.9983C4.63025 33.5493 5.08101 34 5.63199 34H9.69392C10.2449 34 10.6957 33.5493 10.6957 32.9983V19.5421C10.6957 18.9911 10.2449 18.5403 9.69392 18.5403Z" fill="#FF636E"/>
<path d="M25.8247 32.9983V19.5421C25.8247 18.9911 26.2755 18.5403 26.8264 18.5403H24.306C23.7551 18.5403 23.3043 18.9911 23.3043 19.5421V32.9983C23.3043 33.5493 23.7551 34 24.306 34H26.8264C26.2755 34 25.8247 33.5493 25.8247 32.9983Z" fill="#FF4654"/>
<path d="M7.1507 32.9983V19.5421C7.1507 18.9911 7.60146 18.5403 8.15244 18.5403H5.63199C5.08101 18.5403 4.63025 18.9911 4.63025 19.5421V32.9983C4.63025 33.5493 5.08101 34 5.63199 34H8.15237C7.60146 34 7.1507 33.5493 7.1507 32.9983Z" fill="#FF4654"/>
</g>
<defs>
<clipPath id="clip0">
<rect width="34" height="34" fill="white"/>
</clipPath>
</defs>
</svg>
