<svg width="50" height="50" viewBox="0 0 50 50" fill="none" xmlns="http://www.w3.org/2000/svg">
<g clip-path="url(#clip0)">
<path d="M33.3689 29.9562C33.3689 29.2891 33.0829 28.9234 32.6517 28.6625C32.2126 28.4109 31.6829 28.3766 30.9579 28.3766H27.7439V34.2516H29.1517V32.1125H30.6579C31.1533 32.1125 31.4642 32.1625 31.6501 32.3734C31.9017 32.6422 31.8704 33.1625 31.8704 33.5219V34.2469H33.2376V33.0906C33.2376 32.5703 33.2064 32.3094 33.0189 32.0156C32.8349 31.7953 32.5962 31.6271 32.3267 31.5281L32.3658 31.5109C32.7486 31.3656 33.3673 30.8922 33.3673 29.9562H33.3689ZM31.5533 30.8016L31.4954 30.7937C31.3079 30.9078 31.0892 30.9172 30.8033 30.9172H29.1204V29.6062H30.8376C31.0892 29.6062 31.3329 29.6062 31.5298 29.7125C31.6279 29.7603 31.7095 29.8362 31.7643 29.9305C31.8191 30.0248 31.8446 30.1333 31.8376 30.2422C31.8376 30.4937 31.7392 30.6875 31.5611 30.8031L31.5533 30.8016ZM42.2876 32.9922H39.5861V34.2469H42.3048C43.7111 34.2469 44.4923 33.6672 44.4923 32.4078C44.4923 31.8203 44.3548 31.4703 44.1033 31.1953C43.7861 30.9187 43.2798 30.7875 42.5829 30.7641L41.8001 30.7312C41.5814 30.7312 41.4267 30.7312 41.2642 30.6672C41.1714 30.6382 41.0908 30.5795 41.0346 30.5002C40.9784 30.4208 40.9498 30.3253 40.9533 30.2281C40.9533 30.0406 40.9861 29.8859 41.1408 29.7969C41.3146 29.7 41.5124 29.6544 41.7111 29.6656H44.2658V28.4141H41.4579C39.9939 28.4141 39.4642 29.325 39.4642 30.1641C39.4642 32.0437 41.0767 31.9453 42.3954 31.9781C42.6064 31.9781 42.7689 32.0094 42.8579 32.0984C42.9564 32.1656 43.0283 32.3187 43.0283 32.4734C43.0283 32.6359 42.9548 32.7906 42.8658 32.8484C42.7454 32.9609 42.5579 32.9937 42.2892 32.9937L42.2876 32.9922ZM0.00168915 0V21.0375L1.68763 17.1234H5.33294L5.80325 18.0922V17.1234H10.0595L10.9954 19.2469L11.9079 17.1406H25.4579C26.0689 17.1406 26.6204 17.2609 27.0283 17.6359V17.1547H30.7548V17.6359C31.3876 17.2781 32.1783 17.1547 33.0814 17.1547H38.5079L39.0142 18.1234V17.1547H43.0095L43.5361 18.1234V17.1469H47.4111V25.3766H43.4798L42.7314 24.1219V25.3422H37.8236L37.2939 24.0312H36.0736L35.5126 25.3078H32.9892C31.9876 25.3078 31.2392 25.0969 30.7345 24.8125V25.3078H24.7111V23.4703C24.7111 23.2187 24.6548 23.2187 24.5001 23.1844H24.2798V25.3406H12.6345V24.3484L12.1954 25.3406H9.77044L9.347 24.3484V25.3156H4.65169L4.122 24.0141H2.9095L2.38294 25.3156H-0.00299835V49.9984H49.5486V35.1875C48.9876 35.4703 48.272 35.5609 47.522 35.5609H43.9345V35.0312C43.4954 35.3734 42.747 35.5609 42.0298 35.5609H30.6439V33.6906C30.6439 33.4391 30.6017 33.4391 30.3923 33.4391H30.2376V35.5703H26.4861V33.35C25.8673 33.6359 25.1423 33.6578 24.5486 33.6359H24.1095V35.5406H19.5704L18.4392 34.2531L17.2501 35.5078H9.87669V27.3203H17.397L18.4783 28.575L19.6345 27.3203H24.6548C25.2408 27.3203 26.1923 27.3875 26.6158 27.7937V27.2891H31.1486C31.572 27.2891 32.4923 27.3875 33.0361 27.7594V27.2641H39.8314V27.7594C40.1736 27.4172 40.8986 27.2641 41.5079 27.2641H45.4454V27.7594C45.8533 27.4516 46.4142 27.2641 47.1954 27.2641H49.6454V0.0015625L0.00168915 0ZM44.0767 31.1516C44.0845 31.1687 44.0845 31.1844 44.0939 31.1937C44.1189 31.2078 44.1501 31.2078 44.1673 31.2328L44.0783 31.1594L44.0767 31.1516ZM49.6439 27.2547H49.7829V28.4109H49.6439V27.2547ZM49.7158 31.3141V31.2969C49.6595 31.2484 49.6267 31.2016 49.5611 31.1516C49.2533 30.8344 48.747 30.7031 47.9736 30.6875L47.2173 30.6641C46.9736 30.6641 46.8189 30.6469 46.6564 30.6C46.5638 30.5707 46.4832 30.512 46.4271 30.4327C46.371 30.3535 46.3423 30.258 46.3454 30.1609C46.3454 29.9734 46.4095 29.825 46.5329 29.7359C46.6876 29.6469 46.8408 29.6312 47.0939 29.6312H49.6423V28.4109H46.9736C45.5314 28.4109 44.972 29.3219 44.972 30.1609C44.972 32.0312 46.5986 31.9422 47.9095 31.975C48.1298 31.975 48.2845 31.9984 48.3736 32.0953C48.472 32.1625 48.5361 32.3156 48.5361 32.4703C48.5349 32.5429 48.5174 32.6142 48.485 32.6791C48.4525 32.7441 48.4059 32.8008 48.3486 32.8453C48.2501 32.9578 48.0626 32.9906 47.7876 32.9906H45.1001V34.2516H47.7798C48.6564 34.2516 49.3095 34.0078 49.6595 33.5031H49.7158C49.9033 33.2172 50.0017 32.8766 50.0017 32.4141C50.0017 31.9078 49.9033 31.6 49.7158 31.3141ZM38.747 29.5984V28.3859H34.0908V34.2859H38.747V33.0656H35.4736V31.8859H38.6658V30.6656H35.4736V29.6078L38.747 29.5984ZM28.1517 18.3016H29.5751V24.1703H28.1517V18.3016ZM27.3454 19.8812L27.3283 19.8984C27.3283 19.2375 27.0595 18.8562 26.6204 18.5969C26.172 18.3359 25.6454 18.3109 24.9376 18.3109H21.7314V24.1859H23.1376V22.0297H24.6361C25.1314 22.0297 25.4501 22.0937 25.6533 22.2812C25.9079 22.5672 25.8736 23.0703 25.8736 23.4203V24.1625H27.2814V23.0141C27.2814 22.4937 27.2486 22.2328 27.0517 21.9312C26.8685 21.7141 26.6337 21.5465 26.3689 21.4437C26.6698 21.3107 26.9244 21.091 27.1 20.8127C27.2756 20.5345 27.3643 20.2102 27.3548 19.8812H27.3454ZM25.5642 20.7047H25.5392C25.3439 20.8172 25.1314 20.825 24.847 20.825H23.1298V19.5234H24.847C25.0986 19.5234 25.3423 19.5312 25.5298 19.6297C25.7173 19.7109 25.847 19.8984 25.847 20.15C25.847 20.4016 25.7486 20.6062 25.5642 20.7047ZM33.172 19.5234H34.4829V18.2781H33.1392C32.1783 18.2781 31.4704 18.4984 31.0158 18.9641C30.422 19.5891 30.2658 20.4031 30.2658 21.2828C30.2658 22.35 30.5173 23.0156 31.0158 23.5125C31.4954 24.0078 32.3579 24.1641 33.0329 24.1641H34.6626L35.1923 22.8531H38.0876L38.6329 24.1641H41.4642V19.7687L44.1189 24.1641H46.1048V18.3031H44.672V22.3969L42.2158 18.3109H40.0908V23.7469L37.7298 18.2141H35.6376L33.6767 22.8453H33.0501C32.6861 22.8453 32.2939 22.7812 32.0751 22.5594C31.8142 22.2516 31.6923 21.8109 31.6923 21.1844C31.6923 20.5906 31.8548 20.1172 32.0908 19.8734C32.3673 19.5875 32.6611 19.5234 33.1658 19.5234H33.172ZM36.647 19.3047L37.6079 21.6312V21.6391H35.6704L36.647 19.3047ZM4.95794 22.8516L5.48763 24.1625H8.33606V19.5734L10.3626 24.1625H11.5751L13.6001 19.5734L13.6329 24.1625H15.072V18.3109H12.7454L11.0689 22.2734L9.23919 18.3031H6.96888V23.8531L4.59231 18.3031H2.51731L0.0282517 24.1641H1.52356L2.06106 22.8625H4.9595L4.95794 22.8516ZM3.52513 19.3047L4.48606 21.6312L4.47825 21.6391H2.57356L3.52513 19.3047ZM24.7001 28.3766H20.2423L18.4673 30.2969L16.7501 28.3766H11.1439V34.2516H16.6689L18.4501 32.3078L20.1689 34.2453H22.8767V32.2906H24.6267C25.872 32.2906 27.0595 31.9484 27.0595 30.3219L27.0517 30.3141C27.0517 28.6875 25.8079 28.3766 24.7001 28.3766ZM15.9845 33.025H12.5423V31.8609H15.6001V30.6656H12.5423V29.6078H16.0408L17.572 31.3156L15.9767 33.0328L15.9845 33.025ZM21.4845 33.7172L19.3361 31.3234L21.4845 29.0219V33.7172ZM24.7158 31.0953H22.8767V29.5969H24.7158C25.2204 29.5969 25.5954 29.8016 25.5954 30.3141C25.5954 30.8266 25.2876 31.0953 24.7158 31.0953ZM20.7704 19.5234V18.3031H16.1064V24.1719H20.7704V22.9594H17.497V21.7859H20.6798V20.5812H17.497V19.5234H20.7704Z" fill="#4F4F4F"/>
</g>
<defs>
<clipPath id="clip0">
<rect width="50" height="50" fill="white"/>
</clipPath>
</defs>
</svg>
