<svg width="50" height="39" viewBox="0 0 50 39" fill="none" xmlns="http://www.w3.org/2000/svg">
<g clip-path="url(#clip0)">
<path d="M9.0898 38.674V36.1016C9.0898 35.1152 8.48941 34.4723 7.46031 34.4723C6.94585 34.4723 6.38843 34.6437 6.0025 35.2012C5.7025 34.7295 5.27378 34.4723 4.63062 34.4723C4.20171 34.4723 3.7732 34.6008 3.43003 35.0725V34.558H2.52964V38.674H3.43003V36.4016C3.43003 35.6729 3.81597 35.3297 4.41636 35.3297C5.01636 35.3297 5.31675 35.7156 5.31675 36.4016V38.674H6.21714V36.4016C6.21714 35.6729 6.64566 35.3297 7.20308 35.3297C7.80347 35.3297 8.10347 35.7156 8.10347 36.4016V38.674H9.0898ZM22.424 34.558H20.9664V33.3146H20.066V34.558H19.2513V35.3725H20.0658V37.2592C20.0658 38.2025 20.4517 38.7598 21.4808 38.7598C21.8668 38.7598 22.2953 38.6313 22.5957 38.4598L22.3382 37.6879C22.081 37.8594 21.781 37.9023 21.5666 37.9023C21.1378 37.9023 20.9664 37.6451 20.9664 37.2162V35.3725H22.424V34.558ZM30.056 34.4721C29.5416 34.4721 29.1986 34.7295 28.9841 35.0725V34.558H28.0837V38.674H28.9841V36.3588C28.9841 35.6729 29.2841 35.2869 29.8416 35.2869C30.013 35.2869 30.2275 35.3299 30.399 35.3727L30.6562 34.5152C30.4847 34.4723 30.2275 34.4723 30.056 34.4723V34.4721ZM18.5224 34.901C18.0935 34.6008 17.4933 34.4723 16.8502 34.4723C15.8212 34.4723 15.1353 34.9867 15.1353 35.8014C15.1353 36.4875 15.6498 36.8732 16.5502 37.002L16.9789 37.0449C17.4505 37.1305 17.7078 37.2592 17.7078 37.4736C17.7078 37.7736 17.3648 37.9881 16.7644 37.9881C16.1642 37.9881 15.6925 37.7736 15.3923 37.5594L14.9636 38.2453C15.4353 38.5883 16.0785 38.7598 16.7214 38.7598C17.922 38.7598 18.6082 38.2025 18.6082 37.4307C18.6082 36.7018 18.0507 36.3158 17.1931 36.1873L16.7644 36.1443C16.3785 36.1014 16.0785 36.0158 16.0785 35.7586C16.0785 35.4584 16.3785 35.2869 16.8502 35.2869C17.3648 35.2869 17.8793 35.5012 18.1365 35.6299L18.5224 34.901ZM42.4472 34.4723C41.9326 34.4723 41.5896 34.7295 41.3752 35.0725V34.558H40.4748V38.674H41.3752V36.3588C41.3752 35.6729 41.6754 35.2869 42.2326 35.2869C42.4043 35.2869 42.6187 35.3299 42.7902 35.3727L43.0474 34.5152C42.8759 34.4723 42.6187 34.4723 42.4472 34.4723ZM30.9564 36.616C30.9564 37.8594 31.8138 38.7598 33.1431 38.7598C33.7433 38.7598 34.172 38.6312 34.6007 38.2883L34.172 37.5594C33.8291 37.8166 33.4861 37.9451 33.1002 37.9451C32.3712 37.9451 31.8568 37.4307 31.8568 36.616C31.8568 35.8443 32.3712 35.3297 33.1002 35.2869C33.4861 35.2869 33.8291 35.4154 34.172 35.6729L34.6007 34.9439C34.172 34.6008 33.7433 34.4723 33.1431 34.4723C31.8138 34.4723 30.9564 35.3727 30.9564 36.616ZM39.2744 36.616V34.558H38.374V35.0725C38.0738 34.6867 37.6451 34.4723 37.0877 34.4723C35.93 34.4723 35.0296 35.3727 35.0296 36.616C35.0296 37.8594 35.93 38.7598 37.0877 38.7598C37.6879 38.7598 38.1168 38.5455 38.374 38.1596V38.674H39.2744V36.616ZM35.9728 36.616C35.9728 35.8871 36.4445 35.2869 37.2162 35.2869C37.9451 35.2869 38.4597 35.8443 38.4597 36.616C38.4597 37.3449 37.9451 37.9451 37.2162 37.9451C36.4445 37.9022 35.9728 37.3449 35.9728 36.616ZM25.2111 34.4723C24.0105 34.4723 23.1529 35.3297 23.1529 36.616C23.1529 37.9023 24.0103 38.7598 25.2539 38.7598C25.8541 38.7598 26.4544 38.5883 26.9261 38.2025L26.4972 37.5594C26.1543 37.8166 25.7255 37.9881 25.2968 37.9881C24.7394 37.9881 24.182 37.7309 24.0533 37.0018H27.0976V36.659C27.1406 35.3297 26.3687 34.4723 25.2109 34.4723H25.2111ZM25.2111 35.2439C25.7683 35.2439 26.1544 35.5871 26.24 36.2303H24.0962C24.182 35.6729 24.5679 35.2439 25.2111 35.2439ZM47.5494 36.616V32.9287H46.649V35.0725C46.3488 34.6867 45.9201 34.4723 45.3627 34.4723C44.205 34.4723 43.3046 35.3727 43.3046 36.616C43.3046 37.8594 44.205 38.7598 45.3627 38.7598C45.963 38.7598 46.3918 38.5455 46.649 38.1596V38.674H47.5494V36.616ZM44.248 36.616C44.248 35.8871 44.7195 35.2869 45.4914 35.2869C46.2203 35.2869 46.7347 35.8443 46.7347 36.616C46.7347 37.3449 46.2203 37.9451 45.4914 37.9451C44.7195 37.9022 44.248 37.3449 44.248 36.616ZM14.149 36.616V34.558H13.2486V35.0725C12.9484 34.6867 12.5197 34.4723 11.9623 34.4723C10.8046 34.4723 9.90425 35.3727 9.90425 36.616C9.90425 37.8594 10.8046 38.7598 11.9623 38.7598C12.5627 38.7598 12.9914 38.5455 13.2486 38.1596V38.674H14.149V36.616ZM10.8046 36.616C10.8046 35.8871 11.2763 35.2869 12.048 35.2869C12.7769 35.2869 13.2916 35.8443 13.2916 36.616C13.2916 37.3449 12.7769 37.9451 12.048 37.9451C11.2763 37.9022 10.8046 37.3449 10.8046 36.616Z" fill="#4F4F4F"/>
<path d="M18.2223 3.30139H31.7282V27.5692H18.2223V3.30139Z" fill="#828282"/>
<path d="M19.0799 15.4354C19.0799 10.5047 21.3951 6.13125 24.9537 3.30137C22.3385 1.24336 19.0371 0 15.4355 0C6.90293 0 0 6.90293 0 15.4354C0 23.9676 6.90293 30.8707 15.4354 30.8707C19.0369 30.8707 22.3383 29.6273 24.9537 27.5691C21.3951 24.7822 19.0799 20.366 19.0799 15.4354Z" fill="#4F4F4F"/>
<path d="M49.9503 15.4354C49.9503 23.9676 43.0474 30.8707 34.515 30.8707C30.9134 30.8707 27.6121 29.6273 24.9966 27.5691C28.5982 24.7395 30.8707 20.366 30.8707 15.4354C30.8707 10.5047 28.5552 6.13125 24.9966 3.30137C27.6119 1.24336 30.9134 0 34.515 0C43.0474 0 49.9505 6.9459 49.9505 15.4354H49.9503Z" fill="#BDBDBD"/>
</g>
<defs>
<clipPath id="clip0">
<rect width="50" height="38.8672" fill="white"/>
</clipPath>
</defs>
</svg>
