<svg width="50" height="50" viewBox="0 0 50 50" fill="none" xmlns="http://www.w3.org/2000/svg">
<path d="M2.08334 8.33325H47.9167V12.4999H2.08334V8.33325ZM2.08334 37.4999H47.9167V41.6666H2.08334V37.4999ZM40.8792 31.0707L40.5167 29.2582H36.4563L35.8104 31.0562L32.5563 31.0624C34.65 26.0499 36.2021 22.3333 37.2146 19.9208C37.4792 19.2895 37.95 18.9687 38.6417 18.9728C39.1708 18.977 40.0354 18.977 41.2354 18.9728L43.75 31.0666L40.8792 31.0728V31.0707ZM37.3708 26.7749H39.9875L39.0083 22.2332L37.3708 26.7749ZM16.4 18.9707L19.6708 18.9749L14.6146 31.0707L11.3021 31.0687C10.1833 26.7562 9.36043 23.5562 8.83543 21.4749C8.67501 20.8353 8.35626 20.3895 7.73959 20.1791C7.19168 19.9916 6.27918 19.6999 5.00001 19.3062V18.9728H10.2271C11.1313 18.9728 11.6583 19.4103 11.8292 20.3062L13.1208 27.1582L16.4 18.9707ZM24.1646 18.9749L21.5813 31.0687L18.4667 31.0645L21.05 18.9707L24.1646 18.9749ZM30.4813 18.7499C31.4104 18.7499 32.5854 19.0374 33.2604 19.3062L32.7146 21.8145C32.1042 21.5687 31.1 21.2374 30.2563 21.252C29.0271 21.2708 28.2688 21.7853 28.2688 22.2791C28.2688 23.0791 29.5854 23.4832 30.9438 24.3603C32.4917 25.3603 32.6938 26.2562 32.675 27.2312C32.6542 29.2541 30.9438 31.2499 27.3333 31.2499C25.6854 31.2249 25.0917 31.0874 23.75 30.6124L24.3167 27.9957C25.6833 28.5666 26.2646 28.7478 27.4313 28.7478C28.5042 28.7478 29.4229 28.3166 29.4313 27.5645C29.4354 27.0291 29.1083 26.7645 27.9063 26.102C26.7042 25.4416 25.0208 24.527 25.0417 22.6853C25.0688 20.3312 27.3063 18.7499 30.4792 18.7499H30.4813Z" fill="#4F4F4F"/>
</svg>
